<svg width="50" height="50" viewBox="0 0 50 50" fill="none" xmlns="http://www.w3.org/2000/svg">
<path d="M7.5 0.5H4C3.07174 0.5 2.1815 0.868749 1.52513 1.52513C0.868749 2.1815 0.5 3.07174 0.5 4V46C0.5 46.9283 0.868749 47.8185 1.52513 48.4749C2.1815 49.1312 3.07174 49.5 4 49.5H7.5C8.42826 49.5 9.3185 49.1312 9.97487 48.4749C10.6313 47.8185 11 46.9283 11 46V4C11 3.07174 10.6313 2.1815 9.97487 1.52513C9.3185 0.868749 8.42826 0.5 7.5 0.5ZM4 46V4H7.5V46H4ZM21.5 0.5H18C17.0717 0.5 16.1815 0.868749 15.5251 1.52513C14.8687 2.1815 14.5 3.07174 14.5 4V46C14.5 46.9283 14.8687 47.8185 15.5251 48.4749C16.1815 49.1312 17.0717 49.5 18 49.5H21.5C22.4283 49.5 23.3185 49.1312 23.9749 48.4749C24.6312 47.8185 25 46.9283 25 46V4C25 3.07174 24.6312 2.1815 23.9749 1.52513C23.3185 0.868749 22.4283 0.5 21.5 0.5ZM18 46V4H21.5V46H18ZM49.5 43.9175L38.6325 3.3525C38.3907 2.45703 37.8033 1.69418 36.9994 1.23152C36.1954 0.768855 35.2407 0.644223 34.345 0.885L30.9675 1.795C30.072 2.03683 29.3092 2.62422 28.8465 3.42814C28.3839 4.23206 28.2592 5.18675 28.5 6.0825L39.3675 46.6475C39.5675 47.3904 40.0068 48.0467 40.6173 48.5149C41.2278 48.9831 41.9756 49.237 42.745 49.2375C43.0525 49.2387 43.3587 49.1975 43.655 49.115L47.0325 48.205C47.928 47.9632 48.6908 47.3758 49.1535 46.5719C49.6161 45.7679 49.7408 44.8132 49.5 43.9175ZM42.745 45.6675L31.8775 5.1725L35.255 4.2625L46.1225 44.8275L42.745 45.6675Z" fill="#D9D9D9"/>
</svg>
